<svg id="Layer_2" data-name="Layer 2" xmlns="http://www.w3.org/2000/svg" xmlns:xlink="http://www.w3.org/1999/xlink" viewBox="0 0 400 300" width="406" height="306" class="illustration styles_illustrationTablet__1DWOa"><defs><linearGradient id="linear-gradient" x1="130.36" y1="229.06" x2="148.74" y2="203.53" gradientUnits="userSpaceOnUse"><stop offset="0" stop-color="#3c44b3"></stop><stop offset="1" stop-color="#1b1464"></stop></linearGradient><linearGradient id="linear-gradient-2" x1="306.67" y1="208.61" x2="335.99" y2="187.32" xlink:href="#linear-gradient"></linearGradient></defs><title>PP</title><path d="M194.28,289.5,14.56,183.29c-5.72-3.21-10.63-8.49-5.05-11.94l180.37-104c2.71-1.68,6.82-2.78,9.57-1.18L388.11,175.7c5.72,3.32,6.75,12.6,1,15.93L218,289.34A23.9,23.9,0,0,1,194.28,289.5Z" fill="#3c44b3"></path><polygon points="221.06 226.06 165.73 260.33 64.94 196.94 116.59 164.66 221.06 226.06" fill="url(#linear-gradient)"></polygon><polygon points="340.92 194.72 324.46 218.31 288.93 198.88 317.71 178.16 340.92 194.72" fill="url(#linear-gradient-2)"></polygon><line x1="139.47" y1="156.57" x2="88.14" y2="126.47" fill="none" stroke="aqua" stroke-miterlimit="10"></line><line x1="41.08" y1="204.28" x2="249.63" y2="83.28" fill="none" stroke="aqua" stroke-miterlimit="10"></line><line x1="145.47" y1="151.57" x2="94.14" y2="121.47" fill="none" stroke="aqua" stroke-miterlimit="10"></line><line x1="66.32" y1="218.04" x2="274.87" y2="97.04" fill="none" stroke="aqua" stroke-miterlimit="10"></line><line x1="101.32" y1="236.89" x2="309.86" y2="115.89" fill="none" stroke="aqua" stroke-miterlimit="10"></line><line x1="125.26" y1="252.43" x2="333.81" y2="131.43" fill="none" stroke="aqua" stroke-miterlimit="10"></line><line x1="344.65" y1="214.83" x2="293.32" y2="184.73" fill="none" stroke="aqua" stroke-miterlimit="10"></line><line x1="350.65" y1="209.83" x2="299.32" y2="179.73" fill="none" stroke="aqua" stroke-miterlimit="10"></line><path d="M105.65,172.5l87.92-52.28a15.82,15.82,0,0,1,16.12,0l88.66,52.31a4.17,4.17,0,0,1,0,7.16l-88,52.8a16.25,16.25,0,0,1-16.73,0l-88-52.81A4.17,4.17,0,0,1,105.65,172.5Z" fill="#448ca0"></path><polygon points="103.63 176.39 103.63 164.21 113.81 170.3 113.16 172.76 108.11 176.39 103.63 176.39" fill="#448ca0"></polygon><polygon points="300.37 175.65 300.37 164.21 292.24 169.22 292.24 173.3 300.37 175.65" fill="#448ca0"></polygon><path d="M105.65,160.32,193.57,108a15.82,15.82,0,0,1,16.12,0l88.66,52.31a4.17,4.17,0,0,1,0,7.16l-88,52.8a16.25,16.25,0,0,1-16.73,0l-88-52.81A4.17,4.17,0,0,1,105.65,160.32Z" fill="#68e1fd"></path><path d="M137.86,159.68l56.92-33.84a10.24,10.24,0,0,1,10.44,0l57.39,33.86a2.7,2.7,0,0,1,0,4.64l-57,34.18a10.52,10.52,0,0,1-10.83,0l-57-34.19A2.7,2.7,0,0,1,137.86,159.68Z" fill="#448ca0"></path><polygon points="123.3 191.5 123.3 184.86 126.57 187.14 126.57 193.48 112.49 201.58 109.73 199.72 123.3 191.5" fill="#efafb0"></polygon><polygon points="133.03 196.38 133.03 189.75 136.29 192.03 136.29 198.36 122.22 206.47 119.46 204.6 133.03 196.38" fill="#efafb0"></polygon><polygon points="140.78 201.41 140.78 194.78 144.05 197.06 144.05 203.4 129.97 211.5 127.21 209.63 140.78 201.41" fill="#efafb0"></polygon><polygon points="149.2 206.03 149.2 199.4 152.47 201.67 152.47 208.01 138.39 216.11 135.63 214.25 149.2 206.03" fill="#efafb0"></polygon><polygon points="158.92 210.92 158.92 204.28 162.19 206.56 162.19 212.9 148.11 221 145.36 219.14 158.92 210.92" fill="#efafb0"></polygon><polygon points="166.68 215.95 166.68 209.32 169.94 211.59 169.94 217.93 155.87 226.03 153.11 224.17 166.68 215.95" fill="#efafb0"></polygon><polygon points="281.72 190.33 281.72 183.7 278.45 185.98 278.45 192.31 292.53 200.41 295.29 198.55 281.72 190.33" fill="#efafb0"></polygon><polygon points="271.99 195.22 271.99 188.59 268.73 190.86 268.73 197.2 282.8 205.3 285.56 203.44 271.99 195.22" fill="#efafb0"></polygon><polygon points="264.24 200.25 264.24 193.62 260.97 195.9 260.97 202.23 275.05 210.33 277.81 208.47 264.24 200.25" fill="#efafb0"></polygon><polygon points="255.82 204.87 255.82 198.23 252.56 200.51 252.56 206.85 266.63 214.95 269.39 213.09 255.82 204.87" fill="#efafb0"></polygon><polygon points="246.1 209.75 246.1 203.12 242.83 205.4 242.83 211.74 256.91 219.84 259.66 217.97 246.1 209.75" fill="#efafb0"></polygon><polygon points="238.34 214.79 238.34 208.15 235.07 210.43 235.07 216.77 249.15 224.87 251.91 223.01 238.34 214.79" fill="#efafb0"></polygon><polygon points="221.85 148.15 221.06 153.34 209.15 146.72 209.94 141.53 221.85 148.15" fill="#246270"></polygon><path d="M223.93,150.5l-.78,5.19a1,1,0,0,0,0-.47,4.11,4.11,0,0,0-2-1.88l.78-5.19a4.11,4.11,0,0,1,2,1.88A1,1,0,0,1,223.93,150.5Z" fill="#246270"></path><polygon points="211.8 153.66 211.02 158.86 199.11 152.24 199.89 147.04 211.8 153.66" fill="#246270"></polygon><path d="M231.28,151.31l-.78,5.19a3,3,0,0,1-.22.75,6.07,6.07,0,0,1-2.8,2.69,13.2,13.2,0,0,1-4.83,1.51,16.87,16.87,0,0,1-5.67-.31,21.37,21.37,0,0,1-6-2.29l.78-5.19a21.37,21.37,0,0,0,6,2.29,16.87,16.87,0,0,0,5.67.31,13.2,13.2,0,0,0,4.83-1.51,6.07,6.07,0,0,0,2.8-2.69A3,3,0,0,0,231.28,151.31Z" fill="#246270"></path><path d="M201.46,156l-.78,5.19q.1-.69-1.22-1.42a4.3,4.3,0,0,0-4.39-.13l.78-5.19a4.3,4.3,0,0,1,4.39.13Q201.57,155.3,201.46,156Z" fill="#246270"></path><polygon points="195.85 154.44 195.07 159.63 193.24 160.64 194.02 155.44 195.85 154.44" fill="#246270"></polygon><path d="M208.38,156.17l-.78,5.19a2.85,2.85,0,0,1-.19.67,5.55,5.55,0,0,1-2.6,2.42l.78-5.19a5.55,5.55,0,0,0,2.6-2.42A2.85,2.85,0,0,0,208.38,156.17Z" fill="#246270"></path><polygon points="205.59 159.26 204.81 164.45 202.44 165.75 203.22 160.56 205.59 159.26" fill="#246270"></polygon><polygon points="210.21 164.44 209.42 169.64 204.62 172.28 205.4 167.08 210.21 164.44" fill="#246270"></polygon><polygon points="205.4 167.08 204.62 172.28 183.75 160.67 184.53 155.47 205.4 167.08" fill="#246270"></polygon><polygon points="190.17 160.98 189.39 166.17 184.34 168.95 185.12 163.75 190.17 160.98" fill="#246270"></polygon><path d="M177.18,170.73l.78-5.19a2.07,2.07,0,0,1,1.22-1.42,6.44,6.44,0,0,1,2.72-.73,9.83,9.83,0,0,1,3.22.37l-.78,5.19a9.83,9.83,0,0,0-3.22-.37,6.44,6.44,0,0,0-2.72.73A2.07,2.07,0,0,0,177.18,170.73Z" fill="#246270"></path><path d="M191,168.4l-.78,5.19a2.12,2.12,0,0,0-.66-1.73l.78-5.19A2.12,2.12,0,0,1,191,168.4Z" fill="#246270"></path><path d="M198.44,169.13l-.78,5.19c-.21,1.41-1.33,2.66-3.32,3.76a14.78,14.78,0,0,1-5.82,1.71,21.43,21.43,0,0,1-6.7-.47,24.42,24.42,0,0,1-6.55-2.5,13.52,13.52,0,0,1-4.48-3.64,4.27,4.27,0,0,1-.93-3.15l.78-5.19a4.27,4.27,0,0,0,.93,3.15,13.52,13.52,0,0,0,4.48,3.64,24.42,24.42,0,0,0,6.55,2.5,21.43,21.43,0,0,0,6.7.47,14.78,14.78,0,0,0,5.82-1.71C197.11,171.79,198.23,170.54,198.44,169.13Z" fill="#246270"></path><path d="M214.72,138.9l11.91,6.62a11,11,0,0,1,4,3.33,3.29,3.29,0,0,1,.42,3.21,6.07,6.07,0,0,1-2.8,2.69,13.2,13.2,0,0,1-4.83,1.51,16.87,16.87,0,0,1-5.67-.31,21.37,21.37,0,0,1-6-2.29L199.89,147l4.77-2.62L216.58,151A9.06,9.06,0,0,0,220,152.2a4.84,4.84,0,0,0,2.92-.54c.88-.48,1.22-1,1-1.63a4.11,4.11,0,0,0-2-1.88l-11.91-6.62Z" fill="#68e1fd"></path><path d="M198.38,150a15,15,0,0,1,6.72,1.92,7.81,7.81,0,0,1,2.81,2.37,2.61,2.61,0,0,1,.28,2.57,5.55,5.55,0,0,1-2.6,2.42l-2.37,1.3,7,3.88-4.8,2.64-20.87-11.6,7.17-3.94A12.45,12.45,0,0,1,198.38,150Zm2.1,7c1.39-.77,1.32-1.58-.23-2.44a4.3,4.3,0,0,0-4.39-.13l-1.83,1,4.63,2.57,1.83-1" fill="#68e1fd"></path><path d="M173.89,161.09a14.67,14.67,0,0,1,4.94-1.63,19.52,19.52,0,0,1,5.64,0,24.11,24.11,0,0,1,5.69,1.51l-5,2.77a9.83,9.83,0,0,0-3.22-.37,6.44,6.44,0,0,0-2.72.73c-1.05.58-1.43,1.31-1.13,2.2s1.26,1.78,2.85,2.66a12.71,12.71,0,0,0,4.81,1.59,6.67,6.67,0,0,0,4-.6,2.3,2.3,0,0,0,1.32-1.51,2.09,2.09,0,0,0-.65-1.79l5-2.77c2,1.57,3.06,3.16,3.06,4.76s-1.14,3-3.36,4.24a14.78,14.78,0,0,1-5.82,1.71,21.43,21.43,0,0,1-6.7-.47,24.42,24.42,0,0,1-6.55-2.5,13.52,13.52,0,0,1-4.48-3.64,4,4,0,0,1-.8-3.71A6,6,0,0,1,173.89,161.09Z" fill="#68e1fd"></path><line x1="224.14" y1="98.33" x2="172.81" y2="68.23" fill="none" stroke="aqua" stroke-miterlimit="10"></line><line x1="239.26" y1="277.18" x2="161.59" y2="231.64" fill="none" stroke="aqua" stroke-miterlimit="10"></line><path d="M315.91,110.88c0,.05,3.47-6,2.94-11.34S311.54,98,311.54,98" fill="#ffb39c"></path><path d="M317.91,83.89s-5.81,2.79-6.37,15.55c0,0,6.09,1.19,8.73.54" fill="#68e1fd"></path><path d="M328.93,140s2,16,3.06,20.12S334.08,190,334.08,190s3.44,2.46,6.4,0c0,0,1.56-20.86.74-26.43s0-27.53,0-27.53" fill="#ffc6b2"></path><path d="M317.64,135.42s-.39,11.82,0,15.72,2.08,28.58,2.08,28.58a4.39,4.39,0,0,0,5.72,0s1.89-12.21,1.66-14.55-.62-31.83-.62-31.83" fill="#ffc6b2"></path><path d="M329.75,76.51c0,.07,14.28,12.92,10,17.54s-10-1.67-10-1.67L328,77.74" fill="#f18f22"></path><path d="M328.93,199.22a3.35,3.35,0,0,0,.64,3.71c1.64,1.75,3.8.88,5.62,0s7-5.46,6.26-6.67-1-6.24-1-6.24" fill="#fff"></path><path d="M334,188s-.83,4.75-2,6.29-4,5.31-3.06,6.29,1.58-2,3.06-1.12,1,2.94,2.09,2.52,6.11-4.42,6.67-7-.7-7-.7-7" fill="#68e1fd"></path><path d="M310.89,186.65s-.21,2.83,2.36,3.37,5.75-1,7.19-1.68,6.68-5.07,6.68-5.07l-.62-6.16" fill="#fff"></path><path d="M319.51,176.67s-1.54,3.81-4.31,5.25-4.93,4.21-4.31,4.72,2-1.33,2.67-.82.71,2.76,1.59,2.2,2.72.88,5.29-.86,1.75-2.46,3.9-3.29,2.16-6.78,2.16-6.78S321.05,178.3,319.51,176.67Z" fill="#68e1fd"></path><path d="M317.16,113.94a43.51,43.51,0,0,0-2.2,11.9c-.4,7.16,2.51,49.05,2.51,49.05a22.37,22.37,0,0,0,13.35.71v9.57a19.35,19.35,0,0,0,15.43-2.78s-1.29-60.14-10-67.65" fill="#f15a24"></path><path d="M336.83,88.48c-1.17-4.1-7.76-5.57-15.23-5.35a9.22,9.22,0,0,0-3.69.77c-2.6,3.77-2,8.93-1.63,13.26.45,4.87.53,13.55.88,16.79,6.71,3.47,17.25,1.18,19,.79C336.21,114.74,338,92.58,336.83,88.48Z" fill="#68e1fd"></path><path d="M326.72,80l.38,3.86s-2.64,1.64-5,.53L321.82,82" fill="#ffb39c"></path><path d="M321,78.9c-6,.7-5.56-4.18-5.56-4.18-1-10.19,9.93-8.25,9.93-8.25s8.22,1.92,3.13,12.12" fill="#f18f22"></path><path d="M316.54,71.1s.44,12.58,5.62,12S327,78.2,327,78.2s.74-7.84-3.55-9.32S316.54,71.1,316.54,71.1Z" fill="#ffc6b2"></path><path d="M316.54,71.1s3,4.48,6.73,4.16S326.72,80,326.72,80a6.85,6.85,0,0,0,3.52-6.49c0-2.76-3.88-7.3-7.47-7.09S315.71,68.55,316.54,71.1Z" fill="#f18f22"></path><path d="M334.78,85.57a39.38,39.38,0,0,1,7.56,9.26s-3.56,4.76-7.16,5.91,0-.54,0-.54-3.68-2.54-4.3-4.78S334.78,85.57,334.78,85.57Z" fill="#68e1fd"></path><path d="M306.91,89.7a.64.64,0,0,1,1-.69c1.66,1.1,4.17,2.7,4.13,2.73s2.07,7.8,2.07,7.8l-5.58-3.3Z" fill="#842e13"></path><path d="M312.12,101.14s2.71-1.42,2.84-2.52-1.38-3.23-2.1-3.6-3.58,1.68-3.58,1.68l-1.37-2.91a4.24,4.24,0,0,0-.45,1.94c.09.88.44,7.37,1.42,8.26s3.82.71,4,0S312.12,101.14,312.12,101.14Z" fill="#ffc6b2"></path><path d="M308.21,102.24s1.54,8.54,3.33,9.75a3.15,3.15,0,0,0,4.71-3.35c-.5-3.35-4-8.47-4-8.47" fill="#ffc6b2"></path><path d="M327.56,128.83c-.06-.58-1-.58-.91,0q2.56,24.07,4,48.24c0,.58.95.59.91,0Q330.12,152.9,327.56,128.83Z" fill="#842e13"></path><path d="M317.49,93.22c-.28.68,3.07,13,3.07,13l10,.95L328,94.06Z" fill="#25b000"></path><path d="M341.85,95.31c-2.11,1.77-3.09,3.12-5.26,4.82l2.65,5.79-9-3.82s-1-5.87-1.83-5.94-.35,3.59-.52,4.46-4.24-4.83-4.76-4.46,1,6.47,1.29,7.62,3.47,3,3.47,3,8.36,3.47,10.72,4.63,7.37.5,7.15-3.34C345.66,105.57,343.21,98.64,341.85,95.31Z" fill="#ffc6b2"></path><polygon points="99.33 80.58 99.33 141.84 173.75 98.01 173.75 35.98 99.33 80.58" fill="#68e1fd" opacity="0.51"></polygon><polygon points="277.55 85.67 277.55 127.87 226.27 97.67 226.27 54.94 277.55 85.67" fill="#68e1fd" opacity="0.51"></polygon></svg>